<?xml version="1.0" encoding="utf-8"?>
<!-- Generated by IcoMoon.io -->
<!DOCTYPE svg PUBLIC "-//W3C//DTD SVG 1.1//EN" "http://www.w3.org/Graphics/SVG/1.1/DTD/svg11.dtd">
<svg version="1.1" xmlns="http://www.w3.org/2000/svg" xmlns:xlink="http://www.w3.org/1999/xlink" width="100" height="100" viewBox="0 0 100 100">
<g>
</g>
	<path d="M25.73 74.157c0 2.642 2.236 3.963 6.706 3.963 3.913 0 5.868-1.371 5.868-4.115 0-2.592-2.133-3.886-6.401-3.886-4.116-0-6.173 1.345-6.173 4.038zM83.335 0h-66.666c-9.168 0-16.669 7.501-16.669 16.669v66.663c0 9.173 7.501 16.669 16.669 16.669h66.666c9.167 0 16.665-7.495 16.665-16.669v-66.662c0-9.168-7.498-16.669-16.665-16.669zM46.458 39.94c-0.711 0.254-1.727 0.533-3.048 0.838 0.406 1.169 0.61 2.261 0.61 3.277 0 3.251-0.978 6.084-2.934 8.497-1.956 2.413-4.484 3.848-7.583 4.305-2.032 0.305-3.048 1.398-3.048 3.277 0 0.66 0.33 1.321 0.991 1.981 0.864 0.965 2.134 1.575 3.81 1.829 7.265 1.117 10.897 4.14 10.897 9.068 0 7.875-4.7 11.813-14.098 11.813-3.862 0-7.037-0.686-9.526-2.058-3.15-1.727-4.724-4.445-4.724-8.154 0-4.268 2.363-7.189 7.086-8.763v-0.152c-1.727-1.067-2.59-2.692-2.59-4.877 0-2.845 0.813-4.623 2.438-5.334v-0.153c-1.626-0.559-3.074-1.829-4.344-3.811-1.422-2.134-2.134-4.42-2.134-6.858 0-3.658 1.296-6.706 3.886-9.145 2.49-2.287 5.462-3.429 8.917-3.429 2.49 0 4.801 0.609 6.935 1.828 2.438 0 5.258-0.609 8.46-1.828l-0.001 7.849zM58.806 66.308h-8.612c0.102-1.016 0.152-2.743 0.152-5.182v-23.7c0-2.388-0.051-4.039-0.152-4.953h8.612c-0.102 0.965-0.153 2.565-0.153 4.801v23.395c0 2.591 0.051 4.471 0.153 5.639zM58.234 24.852c-1.041 1.118-2.274 1.676-3.696 1.676-1.473 0-2.73-0.558-3.772-1.676-1.042-1.118-1.563-2.439-1.563-3.963 0-1.576 0.521-2.921 1.563-4.040 1.042-1.117 2.299-1.677 3.772-1.677 1.422 0 2.655 0.559 3.696 1.677 1.042 1.119 1.562 2.464 1.562 4.040 0 1.524-0.521 2.845-1.562 3.963zM82.196 65.317c-1.88 1.017-4.141 1.524-6.783 1.524-3.708 0-6.274-1.32-7.696-3.962-1.067-1.981-1.6-5.105-1.6-9.373v-13.641h0.076v-0.153l-1.143-0.076c-0.661 0-1.525 0.076-2.591 0.229v-7.392h3.734v-2.972c0-1.423-0.076-2.566-0.229-3.43h8.84c-0.151 0.965-0.228 2.057-0.228 3.277v3.125h6.629v7.392c-0.254 0-0.724-0.025-1.41-0.076-0.686-0.051-1.334-0.077-1.943-0.077h-3.277v14.174c0 3.405 1.118 5.106 3.353 5.106 1.575 0 2.998-0.431 4.268-1.295v7.62zM31.369 39.102c-3.201 0-4.801 1.88-4.801 5.639 0 3.506 1.6 5.259 4.801 5.259 3.099 0 4.649-1.778 4.649-5.335 0-1.474-0.355-2.744-1.067-3.811-0.864-1.168-2.058-1.753-3.582-1.753z" fill="#384444"></path>
</svg>
