<?xml version="1.0" encoding="utf-8"?>
<!-- Generated by IcoMoon.io -->
<!DOCTYPE svg PUBLIC "-//W3C//DTD SVG 1.1//EN" "http://www.w3.org/Graphics/SVG/1.1/DTD/svg11.dtd">
<svg version="1.1" xmlns="http://www.w3.org/2000/svg" xmlns:xlink="http://www.w3.org/1999/xlink" width="100" height="100" viewBox="0 0 100 100">
<g>
</g>
	<path d="M83.334 0h-66.666c-9.167 0-16.669 7.501-16.669 16.669v66.662c0 9.174 7.501 16.669 16.669 16.669h66.666c9.168 0 16.666-7.495 16.666-16.669v-66.662c0-9.168-7.498-16.669-16.666-16.669zM81.841 33.382c0.032 0.717 0.048 1.438 0.048 2.163 0 22.091-16.525 47.565-46.744 47.565-9.278 0-17.913-2.768-25.184-7.512 1.285 0.155 2.593 0.234 3.919 0.234 7.697 0 14.781-2.673 20.404-7.156-7.189-0.135-13.256-4.968-15.347-11.61 1.003 0.195 2.032 0.3 3.091 0.3 1.498 0 2.95-0.205 4.328-0.587-7.516-1.536-13.179-8.293-13.179-16.392 0-0.071 0-0.14 0.002-0.21 2.215 1.252 4.748 2.004 7.441 2.091-4.408-2.998-7.309-8.114-7.309-13.915 0-3.063 0.81-5.935 2.224-8.404 8.103 10.114 20.209 16.77 33.863 17.467-0.28-1.224-0.426-2.5-0.426-3.81 0-9.232 7.356-16.717 16.429-16.717 4.726 0 8.996 2.030 11.992 5.279 3.742-0.75 7.258-2.141 10.433-4.057-1.227 3.904-3.831 7.18-7.223 9.249 3.323-0.404 6.489-1.303 9.436-2.632-2.202 3.352-4.987 6.296-8.198 8.653z" fill="#384444"></path>
</svg>
