<?xml version="1.0" encoding="utf-8"?>
<!-- Generated by IcoMoon.io -->
<!DOCTYPE svg PUBLIC "-//W3C//DTD SVG 1.1//EN" "http://www.w3.org/Graphics/SVG/1.1/DTD/svg11.dtd">
<svg version="1.1" xmlns="http://www.w3.org/2000/svg" xmlns:xlink="http://www.w3.org/1999/xlink" width="93" height="100" viewBox="0 0 93 100">
<g>
</g>
	<path d="M91.462 26.674q2.232 3.181 1.004 7.199l-15.346 50.558q-1.060 3.571-4.269 5.999t-6.836 2.427h-51.507q-4.297 0-8.287-2.985t-5.552-7.338q-1.339-3.739-0.112-7.087 0-0.223 0.167-1.507t0.223-2.065q0.056-0.446-0.167-1.2t-0.167-1.088q0.112-0.614 0.446-1.172t0.921-1.311 0.921-1.311q1.283-2.121 2.511-5.106t1.674-5.106q0.167-0.558 0.028-1.674t-0.028-1.563q0.167-0.614 0.949-1.563t0.949-1.283q1.172-2.009 2.344-5.134t1.395-5.022q0.056-0.502-0.14-1.786t0.028-1.563q0.223-0.725 1.228-1.702t1.228-1.256q1.060-1.451 2.372-4.715t1.535-5.385q0.056-0.446-0.167-1.423t-0.112-1.479q0.112-0.446 0.502-1.004t1.004-1.283 0.949-1.172q0.446-0.67 0.921-1.702t0.837-1.953 0.893-2.009 1.088-1.786 1.479-1.311 2.009-0.642 2.651 0.307l-0.056 0.167q2.121-0.502 2.846-0.502h42.467q4.129 0 6.362 3.125t1.004 7.254l-15.29 50.558q-2.009 6.641-3.99 8.566t-7.171 1.925h-48.493q-1.507 0-2.121 0.837-0.614 0.893-0.056 2.4 1.339 3.906 8.036 3.906h51.507q1.618 0 3.125-0.865t1.953-2.316l16.741-55.078q0.391-1.228 0.279-3.181 2.121 0.837 3.292 2.4zM32.087 26.786q-0.223 0.725 0.112 1.256t1.116 0.53h33.929q0.725 0 1.423-0.53t0.921-1.256l1.172-3.571q0.223-0.725-0.112-1.256t-1.116-0.53h-33.929q-0.725 0-1.423 0.53t-0.921 1.256zM27.455 41.071q-0.223 0.725 0.112 1.256t1.116 0.53h33.929q0.725 0 1.423-0.53t0.921-1.256l1.172-3.571q0.223-0.725-0.112-1.256t-1.116-0.53h-33.929q-0.725 0-1.423 0.53t-0.921 1.256z" fill="#384444"></path>
</svg>
